# xmcd
# Track frame offsets:
# 150
# 15411
# 28822
# 42457
# 58254
# 73449
# 86894
# 100651
#
# Disc length: 1552 seconds
# Revision: 0
# Processed by: cddbd v1.4PL0 Copyright (c) Steve Scherf et al.
# Submitted via: VisiTrax 2.9.5.181 - For more info visit www.synapsa.com
#
DISCID=6f060e08
DTITLE=Brooks and Dunn - Brooks and Dunn  HITS
DYEAR=1998
DGENRE=Country
TTITLE0=BOOT SCOOTIN' BOOGIE  (Karaoke)
TTITLE1=MY NEXT BROKEN HEART   (Karaoke)
TTITLE2=HARD WORKIN MAN   (Karaoke)
TTITLE3=I'LL NEVER FORGIVE MY HEART   (Karaoke)
TTITLE4=BOOT SCOOTIN' BOOGIE   (vocal)
TTITLE5=BROKEN HEART, MY NEXT   (vocal)
TTITLE6=WORKIN MAN, HARD   (vocal)
TTITLE7=I'LL NEVER FORGIVE MY HEART   (vocal)
EXTD=SINGING MACHINE,THE
EXTT0=
EXTT1=
EXTT2=
EXTT3=
EXTT4=
EXTT5=
EXTT6=
EXTT7=
PLAYORDER=
